<?xml version="1.0" encoding="UTF-8" standalone="no"?>
<svg xmlns:dc="http://purl.org/dc/elements/1.1/" xmlns:cc="http://creativecommons.org/ns#" xmlns:rdf="http://www.w3.org/1999/02/22-rdf-syntax-ns#" xmlns:svg="http://www.w3.org/2000/svg" xmlns="http://www.w3.org/2000/svg" xmlns:sodipodi="http://sodipodi.sourceforge.net/DTD/sodipodi-0.dtd" xmlns:inkscape="http://www.inkscape.org/namespaces/inkscape" width="1000" height="387.05701" version="1.1" id="svg1055" sodipodi:docname="Eurovision_Song_Contest_2020_logo.svg" inkscape:version="0.92.4 (5da689c313, 2019-01-14)">
  <metadata id="metadata1061">
    <rdf:RDF>
      <cc:Work rdf:about="">
        <dc:format>image/svg+xml</dc:format>
        <dc:type rdf:resource="http://purl.org/dc/dcmitype/StillImage"/>
        <dc:title/>
      </cc:Work>
    </rdf:RDF>
  </metadata>
  <defs id="defs1059"/>
  <sodipodi:namedview pagecolor="#ffffff" bordercolor="#666666" borderopacity="1" objecttolerance="10" gridtolerance="10" guidetolerance="10" inkscape:pageopacity="0" inkscape:pageshadow="2" inkscape:window-width="1920" inkscape:window-height="1017" id="namedview1057" showgrid="false" showguides="true" inkscape:guide-bbox="true" fit-margin-top="0" fit-margin-left="0" fit-margin-right="0" fit-margin-bottom="0" inkscape:zoom="0.34268279" inkscape:cx="189.89982" inkscape:cy="-167.99979" inkscape:window-x="1912" inkscape:window-y="-8" inkscape:window-maximized="1" inkscape:current-layer="svg1055">
    <inkscape:grid type="xygrid" id="grid1082" originx="-0.56" originy="-0.82"/>
    <sodipodi:guide position="682.74321,529.3715" orientation="1,0" id="guide1084" inkscape:locked="false"/>
  </sodipodi:namedview>
  <path style="fill:#231f20;fill-rule:nonzero;stroke-width:0.73236465" inkscape:connector-curvature="0" id="path1037" d="m 172.5085,307.41234 6.74507,-8.05601 c 4.67249,3.85224 9.56469,6.29834 15.48952,6.29834 4.67981,0 7.49209,-1.85288 7.49209,-4.8922 v -0.15379 c 0,-2.88552 -1.77965,-4.39419 -10.45085,-6.59129 -10.45816,-2.67313 -17.20324,-5.56597 -17.20324,-15.87034 v -0.14647 c 0,-9.41089 7.56532,-15.64331 18.16996,-15.64331 a 30.026951,30.026951 0 0 1 19.26852,6.59128 l -5.90286,8.59064 c -4.59925,-3.19311 -9.12526,-5.12655 -13.49748,-5.12655 -4.37222,0 -6.67184,1.99935 -6.67184,4.51869 v 0.13915 c 0,3.40549 2.19709,4.51869 11.19785,6.81831 10.52408,2.74637 16.45624,6.52537 16.45624,15.57007 v 0.14648 c 0,10.30437 -7.85828,16.11202 -19.04148,16.11202 a 33.017196,33.017196 0 0 1 -22.0515,-8.30502 z m 79.92295,-45.22351 c -16.00949,0 -27.64677,12.08401 -27.64677,26.83384 v 0.15379 c 0,14.74983 11.49081,26.68737 27.5003,26.68737 16.00949,0 27.65409,-12.08402 27.65409,-26.84116 v -0.14648 c 0,-14.73517 -11.4908,-26.68736 -27.50762,-26.68736 z m 15.5774,26.98763 c 0,8.89823 -6.3789,16.16329 -15.5774,16.16329 -9.1985,0 -15.71654,-7.41885 -15.71654,-16.31708 v -0.14648 c 0,-8.8909 6.37889,-16.16328 15.57007,-16.16328 9.19117,0 15.72387,7.41885 15.72387,16.30976 z m 25.06152,-26.10147 h 10.52408 l 24.32183,31.96039 v -31.96039 h 11.27109 v 51.89536 h -9.71848 l -25.12743,-32.98571 v 32.98571 h -11.27109 z m 60.65444,26.10147 v -0.15379 c 0,-14.74983 11.4908,-26.83384 27.20734,-26.83384 9.34498,0 14.97686,2.51933 20.38904,7.11126 l -7.19183,8.67852 c -3.99871,-3.33226 -7.56532,-5.2657 -13.56339,-5.2657 -8.30501,0 -14.90362,7.32364 -14.90362,16.16328 v 0.14648 c 0,9.52074 6.52537,16.46355 15.71655,16.46355 a 18.243204,18.243204 0 0 0 10.75843,-3.11255 v -7.41885 h -11.49812 v -9.82833 h 22.53486 v 22.53486 a 33.690239,33.690239 0 0 1 -22.16868,8.22445 c -16.16329,0 -27.28058,-11.3663 -27.28058,-26.70934 z m 89.27525,0 v -0.15379 c 0,-14.74983 11.11729,-26.83384 27.06087,-26.83384 9.78439,0 15.64331,3.25902 20.46227,8.00474 l -7.27238,8.37825 c -3.99871,-3.66182 -8.05601,-5.85891 -13.26312,-5.85891 -8.75176,0 -15.0501,7.27238 -15.0501,16.16328 v 0.14648 c 0,8.89823 6.15187,16.31708 15.0501,16.31708 5.92483,0 9.55736,-2.37286 13.63663,-6.07863 l 7.26505,7.32365 c -5.33893,5.70512 -11.27109,9.26441 -21.27519,9.26441 -15.2698,0.0366 -26.61413,-11.77642 -26.61413,-26.67272 z m 85.3571,-26.98763 c -16.01682,0 -27.65409,12.08401 -27.65409,26.83384 v 0.15379 c 0,14.74983 11.4908,26.68737 27.50762,26.68737 16.01681,0 27.64676,-12.08402 27.64676,-26.84116 v -0.14648 c -0.0146,-14.73517 -11.50545,-26.68736 -27.50029,-26.68736 z m 15.57007,26.98763 c 0,8.89823 -6.37889,16.16329 -15.57007,16.16329 -9.19118,0 -15.72387,-7.41885 -15.72387,-16.31708 v -0.14648 c 0,-8.8909 6.3789,-16.16328 15.5774,-16.16328 9.1985,0 15.71654,7.41885 15.71654,16.30976 z m 25.04687,-26.10147 h 10.53141 l 24.3145,31.96039 v -31.96039 h 11.2711 v 51.89536 h -9.71116 L 580.2452,281.98464 v 32.98571 h -11.2711 z m 73.99813,10.5314 h -15.78978 v -10.5314 h 42.99713 v 10.5314 h -15.78979 v 41.36396 h -11.41756 z m 40.41188,-10.5314 H 722.529 v 10.15789 h -27.80056 v 10.52408 h 24.4683 v 10.1579 h -24.4683 v 10.90491 h 28.17407 v 10.15058 h -39.5184 z m 50.49654,44.33735 6.75241,-8.05601 c 4.66516,3.85224 9.55735,6.29834 15.49683,6.29834 4.66517,0 7.48477,-1.85288 7.48477,-4.8922 v -0.15379 c 0,-2.88552 -1.77965,-4.39419 -10.45817,-6.59129 -10.45084,-2.67313 -17.19592,-5.56597 -17.19592,-15.87034 v -0.14647 c 0,-9.41089 7.558,-15.64331 18.16264,-15.64331 a 30.026951,30.026951 0 0 1 19.27584,6.59128 l -5.93215,8.60529 c -4.59925,-3.19311 -9.11794,-5.12656 -13.49016,-5.12656 -4.37222,0 -6.67184,1.99936 -6.67184,4.51869 v 0.12451 c 0,3.40549 2.19709,4.51869 11.19053,6.81831 10.5314,2.74637 16.46356,6.52537 16.46356,15.57007 v 0.14648 c 0,10.30437 -7.85828,16.11202 -19.04148,16.11202 a 33.045758,33.045758 0 0 1 -22.03686,-8.30502 z m 66.36689,-33.80595 h -15.79711 v -10.5314 h 43.00446 v 10.5314 h -15.79711 v 41.36396 H 800.24754 Z M 865.2449,93.063851 c 5.75639,-6.70113 9.70383,-10.60464 8.78838,-15.24783 -0.91546,-4.64319 -16.61736,-7.87292 -23.61876,-1.40614 -20.71127,-16.43426 -16.47088,2.81228 -13.47551,7.10394 -24.46098,17.210569 -41.01242,62.499999 -27.69803,97.836589 13.01412,34.54565 52.29083,38.81533 72.8776,14.53012 18.22856,-21.50223 14.97686,-61.0133 -16.89565,-102.816679 z m -15.89231,99.469769 c -13.3803,-0.6811 -21.02619,-16.51482 -20.08876,-32.70008 1.64049,-28.51096 25.47164,-57.30021 25.47164,-57.30021 5.56597,5.08261 22.3005,32.59755 21.39237,53.66036 -0.88616,20.54283 -13.4096,37.01371 -26.77525,36.33993 z M 98.334603,50.718531 c -60.295583,6.64255 -80.384345,41.79605 -82.237228,46.54177 -1.413464,3.661829 -1.061929,4.496719 2.929459,4.496719 3.991387,0 58.713675,-6.063979 74.569369,-5.287669 16.112027,0.79095 15.072067,18.506859 2.380186,22.212619 -51.829447,14.53744 -81.973577,51.5658 -81.973577,70.59995 0,14.54477 10.575346,21.42167 22.739923,21.42167 36.222756,0 72.877605,-37.64354 79.710565,-45.92659 4.31363,-5.22908 6.98676,-1.94076 6.98676,0.38816 0.0586,30.58354 -32.809933,66.68912 -76.898286,66.68912 C 15.050094,231.85428 0,207.78878 0,187.70002 c 0,-38.08297 41.254101,-70.60728 41.254101,-70.60728 0,0 -20.909011,0.79095 -28.049566,0.79095 -5.2371399,0.156 -9.6525664,-3.87347 -9.9748069,-9.10329 C 1.2816382,59.272551 52.29816,21.043111 98.437134,24.390021 c 18.213906,1.31826 20.257206,24.73928 -0.102531,26.32851 z M 151.57019,166.34426 c 0.90081,9.08132 7.09661,18.66798 15.51148,9.46948 21.29717,-24.70999 19.19528,-92.819899 18.66798,-100.143549 -0.5273,-7.32364 3.42014,-9.46947 6.30566,-5.52203 2.88551,3.94745 16.56609,25.76459 16.56609,59.153099 0,40.49244 -24.16804,81.97357 -43.08502,81.97357 -43.12163,0 -39.2108,-98.79599 -26.32118,-131.400859 6.68649,-16.9396 24.44633,-9.58666 24.44633,2.36554 -0.022,17.32774 -14.72053,57.549209 -12.09134,84.104749 z M 370.40807,89.109091 c 0,0 6.84029,-9.29371 2.7244,-14.53744 -4.62854,-5.91019 -19.45893,-7.75574 -33.35921,7.81433 -18.30912,20.506209 -31.11085,63.715719 -17.25451,100.011719 13.2265,34.69211 50.33542,37.62157 67.53134,11.32968 15.3284,-23.46497 11.30039,-62.55859 -19.64202,-104.618289 z m -9.68186,99.228079 c -12.11331,0 -18.83642,-15.64331 -18.83642,-32.62684 0,-29.93175 21.5242,-57.168389 21.5242,-57.168389 5.91751,7.550679 20.17665,28.855169 20.17665,50.423309 0,21.56814 -10.76576,39.37192 -22.86443,39.37192 z"/>
  <path style="fill:#231f20;fill-rule:nonzero;stroke-width:0.73236465" inkscape:connector-curvature="0" id="path1039" d="m 259.57933,138.51441 c 25.12011,-1.58924 56.58982,-21.15802 56.58982,-42.045059 0,-15.47486 -16.11203,-26.62145 -36.98442,-26.62145 -20.87239,0 -43.94188,7.05267 -52.66434,12.34034 -11.3663,6.59128 -2.92946,22.212619 7.67518,17.979549 0,0 -3.96942,18.51418 -5.02402,28.29857 -8.59064,-1.06193 -10.31902,0.52731 -9.79172,2.38019 0.52731,1.85288 4.23307,3.43479 8.46614,8.72978 -1.32558,11.62996 -3.66182,63.36419 -3.13452,67.86824 0.5273,4.50404 3.25902,5.30232 7.14055,0.51998 3.43479,-4.22575 10.80238,-14.44956 14.23717,-53.0525 3.96942,3.42747 14.80842,17.95758 28.03492,34.89718 19.39302,24.86378 25.78656,26.65075 33.75469,29.4557 4.29898,1.516 8.72979,-0.95207 5.56597,-5.33161 -12.89694,-17.89899 -29.08952,-53.72627 -53.86542,-75.41891 z m -8.72979,-41.517759 c 0,0 30.15146,-7.67518 40.46315,-6.59128 8.97147,0.92278 10.839,4.76037 6.26904,11.856989 -10.76576,16.71256 -35.51968,22.49824 -48.84872,22.25656 1.06193,-13.50481 2.11653,-27.522269 2.11653,-27.522269 z m 390.13798,-26.59948 c 7.90954,2.56328 14.7718,16.11202 12.86032,38.251399 -3.11987,36.11291 -27.44902,81.02883 -30.98634,98.06363 -1.17911,5.70512 -5.61724,5.43415 -7.64589,2.29963 -1.93344,-2.99537 -6.01272,-12.19387 -4.90685,-34.9338 1.516,-31.19141 25.14208,-73.92489 24.44634,-100.795339 -0.10253,-3.59591 2.72439,-4.02801 6.23242,-2.88552 z m 80.07675,25.53755 c -27.76394,0 -36.40584,8.554019 -36.40584,15.079389 0,17.45225 30.15145,16.21456 44.08102,17.80379 8.05602,0.91545 18.50686,6.16651 18.50686,20.09608 0,15.37966 -19.25387,27.74198 -39.70881,38.99842 -21.48026,11.82037 -43.62697,23.43567 -53.7336,30.37849 -5.20711,3.58126 -8.57599,-1.04728 -6.08595,-5.90286 7.19182,-14.00281 20.63804,-27.20002 39.04969,-39.68684 26.94369,-18.30912 44.26412,-26.61413 37.02835,-29.25065 -3.99871,-1.46473 -14.98418,-2.2923 -26.26992,-4.39418 -19.38569,-3.17847 -31.55027,-14.45688 -31.55027,-30.85453 0,-26.614129 23.8458,-38.339289 56.90474,-38.339289 17.44492,-0.0146 19.6054,26.07218 -1.81627,26.07218 z m 52.29816,-25.97697 c 8.78838,0.73236 23.80185,12.51611 22.12474,42.901919 -1.31093,23.86044 -21.63405,75.20653 -23.39173,94.12351 -0.35886,3.84491 -4.16715,5.98342 -7.07464,2.4168 -5.68315,-6.95746 -8.09995,-14.51547 -8.09995,-35.98107 0,-21.46561 18.41164,-77.952899 7.59462,-98.715439 -2.46075,-4.27701 3.97674,-5.15584 8.84696,-4.74572 z M 771.7732,6.3445609 c -1.83823,-7.25774004 5.95413,-8.05602 11.45418,-3.58127 3.54465,2.92946 21.18731,20.3377701 21.18731,41.4225501 0,24.16803 -33.00767,21.00422 -32.4584,1.21572 0.19042,-6.91352 4.03533,-23.85311 -0.18309,-39.0570001 z M 991.74625,211.67764 c -21.09943,-18.20659 -19.10739,-70.35828 -20.16932,-90.98899 -1.03996,-20.27918 -26.50428,-18.71924 -32.74403,-10.25311 -4.50404,25.99163 -6.042,72.6872 -19.20992,98.33461 -1.90415,3.46408 -6.7524,2.87087 -7.25041,-1.06925 -0.51266,-4.15984 -5.39021,-15.02813 -5.39021,-45.69956 0,-30.67143 3.57394,-74.906259 28.35716,-90.322529 4.50405,-2.43145 7.6166,-2.43145 7.79236,0.16844 0.14648,2.27765 -0.65912,9.4768 -0.83489,14.15661 0,0 9.35962,-7.10394 25.12011,-7.10394 12.13528,0 32.5829,12.64794 32.5829,37.255389 0,32.22405 -5.93948,66.42548 -1.61853,93.01031 0.61519,3.8376 -3.78632,4.96544 -6.63522,2.51202 z"/>
  <path style="fill:#fefefe;fill-rule:nonzero;stroke-width:0.73236465" inkscape:connector-curvature="0" id="path1041" d="m 502.08724,45.482121 c -1.42079,-1.99203 -2.64384,-4.0573 -4.18913,-5.85891 -5.96877,-6.87691 -13.61466,-11.10265 -22.27853,-13.52678 -5.6685,-1.58923 -11.47615,-2.51201 -17.34972,-1.46473 -11.20518,2.05062 -20.63071,7.5873 -28.94305,15.15263 -10.2531,9.35229 -17.04213,20.90901 -20.98957,34.15016 -4.71643,15.83372 -5.47809,31.945749 -3.0027,48.233539 2.4461,16.03146 8.99344,30.2613 19.10007,42.89459 8.86894,11.08068 19.64202,20.05215 31.35254,27.9031 9.66721,6.4741 19.59075,12.56738 29.29458,18.9536 6.03469,3.96209 11.82769,8.23177 16.11202,14.22984 1.81627,2.53398 4.89952,1.8895 6.00539,-1.18643 a 49.625029,49.625029 0 0 1 8.09263,-13.97352 c 7.32365,-9.27906 16.11203,-17.13001 24.85646,-25.03222 11.05871,-10.01875 22.27121,-19.86905 33.11021,-30.11484 12.0181,-11.34433 22.90104,-23.70664 31.71139,-37.77537 12.80905,-20.462259 18.86571,-42.477149 15.26248,-66.689119 -1.63318,-11.02209 -5.36824,-21.23858 -12.09134,-30.23934 C 596.11554,5.0263009 576.64929,-4.2966991 554.54652,2.2433109 539.16686,6.8059509 526.52625,15.587001 515.6726,27.143711 a 104.27408,104.27408 0 0 0 -13.58536,18.33841 z"/>
  <path style="fill:#231f20;fill-rule:nonzero;stroke-width:0.73236465" inkscape:connector-curvature="0" id="path1043" d="m 502.08724,45.482121 a 104.27408,104.27408 0 0 1 13.61466,-18.30911 c 10.85364,-11.57869 23.43567,-20.3597401 38.87391,-24.9004001 22.10277,-6.54002 41.56902,2.81228 53.59445,18.8950101 6.72311,8.97879 10.45817,19.21725 12.09134,30.23933 3.60323,24.21198 -2.45342,46.22686 -15.26248,66.689129 -8.78837,14.06872 -19.69328,26.43104 -31.71139,37.77537 -10.839,10.2531 -22.0515,20.09608 -33.1102,30.11483 -8.72979,7.90222 -17.51084,15.75317 -24.85646,25.03223 a 49.625029,49.625029 0 0 0 -8.09263,13.97351 c -1.10587,3.07594 -4.18913,3.72042 -6.00539,1.18644 -4.29898,-5.99807 -10.09199,-10.25311 -16.11202,-14.22985 -9.71848,-6.38622 -19.64202,-12.4502 -29.29459,-18.9536 -11.71783,-7.85095 -22.48359,-16.84438 -31.35253,-27.90309 -10.10663,-12.63329 -16.65397,-26.86314 -19.10007,-42.8946 -2.47539,-16.28779 -1.71373,-32.399809 3.00269,-48.233539 3.94745,-13.24115 10.72182,-24.79786 20.98957,-34.15016 8.31234,-7.56533 17.7452,-13.102 28.94306,-15.12333 5.85891,-1.0546 11.71783,-0.13183 17.34972,1.46473 8.66387,2.42413 16.30976,6.64987 22.27853,13.52677 1.51599,1.74303 2.73904,3.8083 4.15983,5.80033 z m 57.02924,92.644129 c 1.93344,-2.32892 3.91082,-4.62122 5.793,-6.99408 8.5174,-10.78773 16.17794,-22.176 21.67799,-34.838589 3.66183,-8.3929 6.35693,-17.06409 7.12591,-26.25527 a 2.7317202,2.7317202 0 0 0 0.13183,-0.46139 c 0.654,-6.59128 0.43209,-13.24115 -0.65913,-19.77385 a 53.46262,53.46262 0 0 0 -6.51072,-18.90965 c -5.0167,-8.42952 -12.19387,-13.91493 -22.08812,-15.13065 -8.05601,-1.00334 -15.73119,0.6518 -22.9816,4.277 -10.64859,5.33894 -19.04148,13.27778 -26.17472,22.70331 -4.18912,5.55132 -7.91686,11.38095 -9.52074,18.30912 a 7.4774432,7.4774432 0 0 1 -0.73236,1.78697 c -1.6112,3.04663 -4.39419,3.6252 -6.70846,1.0839 a 14.01746,14.01746 0 0 1 -3.04664,-5.40486 29.294586,29.294586 0 0 0 -6.00539,-11.57136 c -6.84029,-7.91686 -15.70922,-10.98547 -25.89641,-9.98213 -6.94282,0.73237 -12.81639,4.20378 -17.85505,8.94217 -11.26377,10.58267 -16.06808,24.2193 -18.24321,39.07166 -0.32224,2.67313 -0.73236,5.33894 -0.95207,8.01939 -1.40614,14.793769 0.56392,29.052909 7.32364,42.381939 2.48272,4.88488 5.68315,9.39624 8.55402,14.07605 4.01336,4.76037 7.79969,9.73313 12.09134,14.22985 9.27906,9.70383 19.94229,17.85505 30.40046,26.21865 5.24373,4.19645 10.53873,8.36361 14.82306,13.62199 0.79096,0.96672 1.46473,2.03597 2.24836,3.11987 2.5999,-6.44481 6.59128,-12.96285 12.71385,-19.69329 9.21315,-10.16522 18.63868,-20.14002 27.88845,-30.2613 5.61724,-6.11525 11.05138,-12.36964 16.60271,-18.56545 z"/>
  <path style="fill:#fefefe;fill-rule:nonzero;stroke-width:0.73236465" inkscape:connector-curvature="0" id="path1045" d="m 442.3629,149.46326 c -2.87087,-4.67981 -6.0713,-9.19118 -8.55402,-14.07605 -6.76705,-13.32904 -8.73711,-27.58818 -7.32364,-42.381939 0.25632,-2.68046 0.62983,-5.34627 0.95207,-8.0194 2.16048,-0.19774 4.31363,-0.4028 6.4741,-0.59321 7.81214,-0.69795 15.63819,-1.3915 23.47961,-2.07992 9.27687,-0.82537 18.553,-1.66027 27.82986,-2.50469 l 22.98893,-2.06526 c 9.06667,-0.82025 18.13335,-1.6427 27.20002,-2.46807 9.01541,-0.81293 18.03082,-1.58923 27.0389,-2.40216 l 31.25,-2.83425 c -0.73236,9.19118 -3.45676,17.86237 -7.1259,26.25527 -5.53668,12.662589 -13.18257,24.050859 -21.71462,34.838589 -1.88217,2.37286 -3.85956,4.66516 -5.793,6.99408 -3.72041,0.34421 -7.44083,0.67378 -11.16124,1.03264 -10.67055,1.03263 -21.3411,2.09456 -32.01166,3.12719 -10.67055,1.03264 -21.45828,2.02133 -32.22404,3.04664 a 19200.097,19200.097 0 0 0 -33.30795,3.20776 c -2.63651,0.26365 -5.31696,0.61518 -7.99742,0.92278 z"/>
  <path style="fill:#d9332f;fill-rule:nonzero;stroke-width:0.73236465" inkscape:connector-curvature="0" id="path1047" d="m 593.71338,70.038311 -31.25,2.83425 c -9.00808,0.81293 -18.02349,1.58923 -27.0389,2.40216 -9.01541,0.81292 -18.13335,1.64782 -27.20002,2.46807 -7.66054,0.69794 -15.32327,1.38636 -22.98893,2.06526 l -27.82986,2.50469 c -7.81213,0.70307 -15.63818,1.39662 -23.47961,2.07992 -2.16048,0.19041 -4.31363,0.39547 -6.4741,0.59321 2.19709,-14.85235 6.97943,-28.48898 18.2432,-39.07165 5.03867,-4.7384 10.91223,-8.2391 17.85505,-8.94217 10.18719,-1.03264 19.04148,2.06526 25.89642,9.98213 a 29.294586,29.294586 0 0 1 6.00539,11.57136 14.01746,14.01746 0 0 0 3.02466,5.42682 c 2.28498,2.54131 5.12655,1.96274 6.70846,-1.0839 a 7.4774432,7.4774432 0 0 0 0.73237,-1.78697 c 1.57458,-6.93549 5.30232,-12.76512 9.52074,-18.30912 7.10393,-9.41088 15.52613,-17.34971 26.17471,-22.7033 7.25041,-3.62521 14.91827,-5.28035 22.9816,-4.27701 9.89425,1.2377 17.07142,6.70114 22.08812,15.13065 a 53.46262,53.46262 0 0 1 6.51072,18.90966 c 1.09123,6.53269 1.31313,13.18256 0.65913,19.77384 a 2.7317202,2.7317202 0 0 1 -0.13915,0.4321 z"/>
  <path style="fill:#195f97;fill-rule:nonzero;stroke-width:0.73236465" inkscape:connector-curvature="0" id="path1049" d="m 442.3629,149.46326 c 2.68046,-0.3076 5.36091,-0.65913 8.05601,-0.92278 11.10265,-1.0839 22.2053,-2.15315 33.30795,-3.20776 10.72914,-1.02531 21.45828,-2.014 32.22404,-3.04664 10.76576,-1.03263 21.34111,-2.09456 32.01166,-3.12719 3.72041,-0.35886 7.44083,-0.68843 11.16124,-1.03264 -5.51471,6.19581 -10.98547,12.4502 -16.55144,18.57277 -9.24977,10.12128 -18.6753,20.09609 -27.88845,30.26131 -6.09327,6.73043 -10.11395,13.24847 -12.71385,19.69328 -0.77631,-1.0839 -1.46473,-2.15315 -2.24836,-3.11987 -4.28433,-5.25838 -9.57933,-9.42553 -14.82306,-13.62198 -10.45817,-8.36361 -21.1214,-16.51483 -30.40046,-26.21866 -4.3356,-4.49672 -8.12192,-9.46947 -12.13528,-14.22984 z"/>
  <path style="fill:#231f20;fill-rule:nonzero;stroke-width:0.73236465" inkscape:connector-curvature="0" id="path1051" d="m 183.19249,343.77425 h 18.30912 c 5.22176,0 9.41821,1.58191 12.09134,4.25504 2.16686,2.24664 3.34783,5.26496 3.281,8.38557 v 0.1245 c 0,7.04535 -4.86291,11.18321 -11.5494,12.39894 l 13.07271,17.37901 h -5.85891 l -12.39161,-16.52947 h -12.15726 v 16.52947 h -4.79699 z m 17.8697,21.69996 c 6.3789,0 10.93421,-3.28099 10.93421,-8.78837 v -0.1245 c 0,-5.22909 -4.00604,-8.38558 -10.87562,-8.38558 h -13.1313 v 17.26184 z m 30.18807,-0.30759 v -0.11718 c 0,-11.71783 8.78838,-21.97094 21.75856,-21.97094 12.97018,0 21.64137,10.15058 21.64137,21.88306 v 0.1245 c 0,11.71783 -8.78837,21.97094 -21.75855,21.97094 -12.97018,0 -21.64138,-10.1579 -21.64138,-21.89038 z m 38.41253,0 v -0.11718 c 0,-9.66721 -7.04535,-17.57675 -16.77115,-17.57675 -9.7258,0 -16.65397,7.78504 -16.65397,17.48154 v 0.12451 c 0,9.65989 7.05267,17.57675 16.77115,17.57675 9.71848,0 16.65397,-7.82166 16.65397,-17.48887 z m 29.88048,-16.95424 h -14.28111 v -4.43813 h 33.42512 v 4.43813 h -14.28111 v 38.08296 h -4.8629 z m 47.12766,0 H 332.3825 v -4.43813 h 33.42512 v 4.43813 h -14.28111 v 38.08296 h -4.8629 z m 34.20876,-4.43813 H 411.639 v 4.39419 h -25.955 v 14.53011 h 23.21596 v 4.39419 H 385.684 v 14.85235 h 26.25527 v 4.39419 h -31.05958 z m 46.80542,0 h 18.30912 c 5.22176,0 9.41821,1.58191 12.09134,4.25504 2.16686,2.24664 3.34783,5.26496 3.28099,8.38557 v 0.1245 c 0,7.04535 -4.8629,11.18321 -11.54939,12.39894 l 13.07271,17.37901 h -5.85892 L 444.63935,369.78784 H 432.4821 v 16.52947 h -4.79699 z m 17.8697,21.69996 c 6.3789,0 10.9342,-3.28099 10.9342,-8.78837 v -0.1245 c 0,-5.22909 -4.00603,-8.38558 -10.87561,-8.38558 h -13.1313 v 17.26184 z m 33.00035,-21.69996 h 14.76447 c 13.37298,0 22.61542,9.17653 22.61542,21.15069 v 0.1245 c 0,11.97416 -9.24244,21.23858 -22.61542,21.23858 h -14.76447 z m 4.79699,4.43813 v 33.68877 h 9.96748 c 10.75844,0 17.62802,-7.32364 17.62802,-16.71988 v -0.11718 c 0,-9.42553 -6.86958,-16.84439 -17.62802,-16.84439 z m 62.10452,-4.74572 h 4.50405 l 19.38569,42.85065 h -5.12655 l -4.98741,-11.2418 h -23.19399 l -5.04599,11.2418 h -4.92149 z m 11.85699,27.22931 -9.66722,-21.63405 -9.7258,21.63405 z m 26.85581,-26.92172 h 4.8629 l 15.49684,23.21596 15.50416,-23.21596 h 4.85557 v 42.54306 h -4.79698 v -34.42114 l -15.49684,22.79119 h -0.249 l -15.49684,-22.7033 v 34.42114 h -4.67981 z m 83.70196,38.8373 15.43824,-13.61466 c 6.5034,-5.85892 8.87626,-9.11794 8.87626,-13.37298 0,-4.98008 -3.95477,-8.1439 -8.56866,-8.1439 -4.86291,0 -8.05602,2.55596 -11.43222,7.32365 l -3.52267,-2.54863 c 3.83027,-5.71977 7.84363,-9.05935 15.31374,-9.05935 7.66054,0 13.18257,5.12655 13.18257,12.03275 v 0.1245 c 0,6.19581 -3.28099,10.02608 -10.75844,16.52947 l -11.35897,10.06269 h 22.5495 v 4.39419 h -29.71935 z m 43.42922,-17.44493 v -0.11718 c 0,-11.91557 7.11126,-21.97094 18.04547,-21.97094 10.93423,0 17.86972,9.96749 17.86972,21.88306 v 0.1245 c 0,11.90825 -7.04535,21.97094 -17.9869,21.97094 -10.94153,0 -17.92829,-9.97481 -17.92829,-21.89038 z m 30.93511,0 v -0.11718 c 0,-9.30103 -5.12655,-17.62802 -13.00682,-17.62802 -7.88025,0 -12.94821,8.1439 -12.94821,17.50352 v 0.1245 c 0,9.29371 5.12655,17.6207 13.06539,17.6207 7.93886,0 12.88964,-8.19516 12.88964,-17.50352 z m 17.23987,17.44493 15.43824,-13.61466 c 6.5034,-5.85892 8.87626,-9.11794 8.87626,-13.37298 0,-4.98008 -3.95477,-8.1439 -8.56866,-8.1439 -4.8629,0 -8.05601,2.55596 -11.43222,7.32365 l -3.52267,-2.54863 c 3.83027,-5.71977 7.84363,-9.05935 15.31375,-9.05935 7.66053,0 13.18256,5.12655 13.18256,12.03275 v 0.1245 c 0,6.19581 -3.28099,10.02608 -10.75844,16.52947 l -11.32968,10.06269 h 22.54951 v 4.39419 h -29.71936 z" sodipodi:nodetypes="csccscccccccccssscccssssssssssssssccccccccccccccccccccccccccccccccsccscccccccccsssccccssssccccssscccccccccccccccccccccccccccccccssccsssccccccssssssssssssssccssccssscccccc"/>
  <g aria-label="1" transform="matrix(1.5185945,0,0,1.5185945,-1142.3208,-646.5606)" style="font-style:normal;font-weight:normal;font-size:40px;line-height:1.25;font-family:sans-serif;text-align:end;letter-spacing:0px;word-spacing:0px;text-anchor:end;fill:#231f20;fill-opacity:1;stroke:none" id="flowRoot1063">
    <path d="m 1281.0223,654.3186 0.76,2.56 5.28,-1.64 v 24.92 h 3.12 v -28.2 h -2.32 z" style="font-style:normal;font-variant:normal;font-weight:normal;font-stretch:normal;font-family:Gotham;-inkscape-font-specification:Gotham;fill:#231f20;fill-opacity:1" id="path1079" inkscape:connector-curvature="0"/>
  </g>
</svg>